<svg width="1920" height="35" viewBox="0 0 1920 35" fill="none" xmlns="http://www.w3.org/2000/svg">
<path d="M1920 19.7474C1883.63 19.7474 1847.26 19.7474 1810.88 19.7474C1738.02 19.7474 1666.17 15.7622 1593.42 13.1928C1503.9 10.0312 1413.94 12.6685 1324.37 12.6685C1296.84 12.6685 1269.38 12.1493 1242.08 16.6012C1186.19 25.7161 1133.09 33.6837 1076.21 33.9052C1021.44 34.1185 966.662 33.9052 911.89 33.9052C875.899 33.9052 840.011 34.1111 804.063 32.0699C778.605 30.6244 753.908 24.182 728.481 22.6314C673.1 19.2542 617.897 26.7406 562.612 28.6616C528.51 29.8465 494.321 29.1859 460.202 29.1859C449.084 29.1859 438.516 29.7019 427.699 26.8263C395.742 18.3316 361.208 20.9125 328.642 15.0281C292.738 8.54075 253.618 12.6685 217.203 12.6685C193.251 12.6685 170.712 7.94921 146.78 7.94921C130.631 7.94921 115.473 9.07598 100.347 3.75431C83.6479 -2.12059 65.6912 3.22994 48.2387 3.22994C39.7901 3.22994 32.0206 7.94921 22.7006 7.94921C14.001 7.94921 6.44631 6.11674 4.97831e-05 12.6685" stroke="#02427A" stroke-linecap="round"/>
</svg>
