<svg width="1920" height="35" viewBox="0 0 1920 35" fill="none" xmlns="http://www.w3.org/2000/svg">
<path d="M0 19.7474C36.3724 19.7474 72.7449 19.7474 109.117 19.7474C181.977 19.7474 253.829 15.7622 326.578 13.1928C416.099 10.0312 506.059 12.6685 595.631 12.6685C623.165 12.6685 650.62 12.1493 677.92 16.6012C733.815 25.7161 786.914 33.6837 843.789 33.9052C898.56 34.1185 953.338 33.9052 1008.11 33.9052C1044.1 33.9052 1079.99 34.1111 1115.94 32.0699C1141.39 30.6244 1166.09 24.182 1191.52 22.6314C1246.9 19.2542 1302.1 26.7406 1357.39 28.6616C1391.49 29.8465 1425.68 29.1859 1459.8 29.1859C1470.92 29.1859 1481.48 29.7019 1492.3 26.8263C1524.26 18.3316 1558.79 20.9125 1591.36 15.0281C1627.26 8.54075 1666.38 12.6685 1702.8 12.6685C1726.75 12.6685 1749.29 7.94921 1773.22 7.94921C1789.37 7.94921 1804.53 9.07598 1819.65 3.75431C1836.35 -2.12059 1854.31 3.22994 1871.76 3.22994C1880.21 3.22994 1887.98 7.94921 1897.3 7.94921C1906 7.94921 1913.55 6.11674 1920 12.6685" stroke="#02427A" stroke-linecap="round"/>
</svg>
