<svg width="60" height="60" viewBox="0 0 60 60" fill="none" xmlns="http://www.w3.org/2000/svg">
<path d="M20.6801 55C18.6986 55 16.9018 54.5993 15.2897 53.7979C13.6776 52.9668 12.3845 51.8685 11.4106 50.5032C10.4702 49.1081 10 47.535 10 45.7837C10 44.4777 10.3191 43.2607 10.9572 42.1328C11.6289 40.9752 12.5189 39.9809 13.6272 39.1498C12.5525 38.3484 11.6961 37.3985 11.0579 36.3003C10.4534 35.2021 10.1511 34.0445 10.1511 32.8275C10.1511 31.1059 10.6213 29.5773 11.5617 28.2416C12.5021 26.8762 13.7615 25.8077 15.34 25.0359C16.9185 24.2345 18.665 23.8338 20.5793 23.8338H35.4408L37.1537 27.1724L35.4408 30.0671H21.8891C21.251 30.0671 20.6633 30.2006 20.1259 30.4678C19.5886 30.7349 19.152 31.0911 18.8161 31.5363C18.5138 31.9815 18.3627 32.501 18.3627 33.0946C18.3627 33.6586 18.5138 34.178 18.8161 34.6529C19.152 35.0982 19.5886 35.4544 20.1259 35.7215C20.6633 35.959 21.251 36.0777 21.8891 36.0777H33.7279V42.3109H22.141C21.4357 42.3109 20.7976 42.4593 20.2267 42.7561C19.6557 43.053 19.2023 43.4388 18.8665 43.9137C18.5306 44.3886 18.3627 44.9378 18.3627 45.5611C18.3627 46.1547 18.5306 46.7039 18.8665 47.2084C19.2023 47.6834 19.6557 48.0544 20.2267 48.3215C20.7976 48.5887 21.4357 48.7222 22.141 48.7222H35.4408V55H20.6801Z" fill="#0015D1"/>
<path d="M39.3199 36.1661C41.3014 36.1661 43.0982 35.7654 44.7103 34.964C46.3224 34.1329 47.6155 33.0347 48.5894 31.6693C49.5298 30.2742 50 28.7011 50 26.9498C50 25.6438 49.6809 24.4268 49.0428 23.2989C48.3711 22.1413 47.4811 21.147 46.3728 20.3159C47.4475 19.5145 48.304 18.5646 48.9421 17.4664C49.5466 16.3682 49.8489 15.2106 49.8489 13.9936C49.8489 12.272 49.3787 10.7434 48.4383 9.40771C47.4979 8.04233 46.2385 6.97377 44.66 6.20204C43.0815 5.40062 41.335 4.99991 39.4207 4.99991H24.5592V11.2332H38.1109C38.749 11.2332 39.3367 11.3667 39.8741 11.6339C40.4114 11.901 40.848 12.2572 41.1839 12.7024C41.4862 13.1476 41.6373 13.6671 41.6373 14.2607C41.6373 14.8247 41.4862 15.3441 41.1839 15.819C40.848 16.2643 40.4114 16.6205 39.8741 16.8876C39.3367 17.125 38.749 17.2438 38.1109 17.2438H26.2721V23.8338H32.0655H37.859C38.5643 23.8338 39.2024 23.6254 39.7733 23.9223C40.3443 24.2191 40.7977 24.6049 41.1335 25.0799C41.4694 25.5548 41.6373 26.1039 41.6373 26.7272C41.6373 27.3209 41.4694 27.87 41.1335 28.3746C40.7977 28.8495 40.3443 29.2205 39.7733 29.4876C39.2024 29.7548 38.5643 29.8884 37.859 29.8884H24.5592L26.2721 33.0946L24.5592 36.1661H39.3199Z" fill="#0015D1"/>
</svg>
