<svg width="592" height="714" viewBox="0 0 592 714" fill="none" xmlns="http://www.w3.org/2000/svg">
<path d="M207.138 5.47236C193.783 5.47236 183.035 7.50787 170.4 10.5346C159.087 13.2447 147.038 13.2202 135.817 15.5225C121.789 18.4006 113.498 27.5446 102.935 33.6127C90.6017 40.698 79.8079 46.8229 70.3929 56.0951C66.8794 59.5554 61.4459 62.2583 59.0542 65.8475C56.0384 70.3733 50.9377 75.4991 45.9013 79.1732C39.7446 83.6645 39.3389 89.9077 35.6965 95.2533C30.2885 103.19 27.0346 114.708 25.4916 123.319C20.1875 152.92 15.2868 182.416 15.2868 212.281C15.2868 223.621 13.9097 234.613 12.112 245.93C10.123 258.452 5.08197 271.529 5.08197 284.121C5.08197 304.693 5.08197 325.264 5.08197 345.836C5.08197 360.399 8.40973 375.156 12.3387 389.461C17.9958 410.058 20.6178 430.207 22.9971 451.102C25.3963 472.169 29.0214 492.758 35.2429 513.636C42.6679 538.552 46.75 563.882 56.1061 588.453C64.5723 610.687 84.095 627.232 113.707 639.299C168.774 661.74 234.704 682.18 301.022 682.18C315.865 682.18 330.907 682.691 345.697 681.882C356.215 681.306 367.111 679.5 377.558 679.5C398.429 679.5 415.316 675.465 435.613 672.8C453.896 670.399 464.863 666.151 478.133 657.762C491.884 649.067 506.821 642.555 518.952 632.599C546.295 610.159 567.634 582.107 579.501 554.283C587.366 535.84 584.717 517.174 584.717 498.002C584.717 483.36 582.399 468.339 580.748 453.707C578.803 436.466 574.512 419.458 574.512 402.117C574.512 387.407 575.558 372.553 573.491 357.896C571.813 345.993 574.454 333.734 570.883 322.014C564.848 302.199 558.184 282.544 558.184 262.16C558.184 237.819 564.307 214.055 564.307 189.65C564.307 179.492 566.493 168.199 563.173 158.234C559.23 146.401 550.3 135.13 544.351 123.691C532.667 101.225 515.895 83.5684 490.152 66.6664C459.372 46.4579 412.879 39.6907 372.002 32.5704C350.261 28.7833 329.472 28.2526 307.145 28.2526C286.002 28.2526 264.993 25.7284 243.875 25.5726C228.891 25.462 211.715 24.7758 197.386 28.2526C185.594 31.114 175.373 35.6026 164.391 39.5683C153.852 43.3738 141.722 44.7987 132.075 49.6928C121.446 55.0857 113.012 60.8095 104.976 67.9319C82.3581 87.9793 54.5091 109.501 40.232 132.774C34.6409 141.888 27.5326 152.204 27.5326 162.18C27.5326 186.48 29.5736 210.75 29.5736 235.061C29.5736 306.579 29.5736 378.096 29.5736 449.613C29.5736 484.889 31.6145 520.093 31.6145 555.325C31.6145 582.902 45.7029 608.775 60.3015 634.535C65.6897 644.042 73.6281 656.358 83.6592 664.089C100.41 677 120.095 681.801 145.455 684.86C182.136 689.283 219.427 687.245 256.574 687.614C293.832 687.985 330.362 694.012 367.467 694.24C419.99 694.562 474.887 693.308 524.281 680.095C555.938 671.627 561.049 638.009 568.616 619.795C597.3 550.741 580.554 477.747 587.211 407.328C587.759 401.534 590.737 395.986 590.839 390.205C591.201 369.813 590.839 349.405 590.839 329.011C590.839 307.833 590.316 286.945 585.51 265.956C579.807 241.048 573.089 216.332 570.883 191.139C567.935 157.454 556.04 123.848 537.774 92.2011C529.412 77.7121 520.421 64.0646 503.078 53.7129C474.263 36.5138 432.743 24.4813 397.401 14.4058C366.529 5.60448 334.216 1.59959 300.569 1.45232C262.951 1.28766 216.189 -1.44063 180.719 8.74795C176.701 9.90193 170.986 10.2568 167.906 11.8747C165.237 13.2765 158.104 13.8823 154.98 15.0013C139.059 20.703 124.852 28.1896 109.285 34.2827C74.9447 47.7237 35.2065 67.5928 25.9452 94.9555C24.9738 97.8254 25.5523 100.981 25.4916 103.889C25.2231 116.761 22.0161 129.634 20.3892 142.452C16.4167 173.75 9.16391 204.955 9.16391 236.402C9.16391 244.796 8.9627 252.647 7.12294 260.968C0.927638 288.99 1.00004 316.727 1.00004 344.943C1.00004 373.632 3.78167 402.959 8.14342 431.597C9.93411 443.354 11.2049 454.991 11.2049 466.81C11.2049 471.906 10.7499 476.614 12.7923 481.475C14.6195 485.824 13.143 490.986 14.1529 495.471C17.1067 508.59 21.5354 521.564 24.3578 534.704C31.9401 570.004 33.6727 604.322 60.4149 636.024C74.8648 653.153 91.2168 669.761 107.924 685.976C111.672 689.614 112.998 691.24 119.603 691.634C138.526 692.764 157.352 695.186 175.843 697.962C217.698 704.246 259.431 713 302.723 713C326.473 713 349.381 709.49 372.91 707.64C400.134 705.499 431.503 703.635 454.095 692.304C460.345 689.169 465.513 685.195 468.835 680.542C474.861 672.101 487.073 664.395 494.914 656.57C517.143 634.387 532.546 606.117 540.269 580.041C544.263 566.555 552.438 553.479 557.504 540.138C566.37 516.79 574.006 493.315 577.46 469.341C581.188 443.463 580.556 416.689 581.542 390.801C583.009 352.275 585.048 313.223 582.222 274.666C577.715 213.175 576.192 149.046 547.526 89.8933C543.496 81.5778 533.795 73.0893 527.796 65.3263C520.817 56.2948 513.378 41.5255 499.223 35.846C496.397 34.7122 492.305 34.6787 489.131 34.2082C463.357 30.3871 437.674 26.3242 411.915 22.4459C391.647 19.3944 371.227 13.5124 350.346 13.5124C315.538 13.5124 280.826 10.8324 245.916 10.8324" stroke="#02427A" stroke-linecap="round"/>
</svg>
