<svg width="40" height="50" viewBox="0 0 40 50" fill="none" xmlns="http://www.w3.org/2000/svg">
<path d="M10.6801 50C8.69856 50 6.90175 49.5993 5.28966 48.7979C3.67757 47.9668 2.38455 46.8685 1.41058 45.5032C0.470192 44.1081 0 42.535 0 40.7837C0 39.4777 0.319059 38.2607 0.957177 37.1328C1.62888 35.9752 2.51889 34.9809 3.6272 34.1498C2.55247 33.3484 1.69605 32.3985 1.05793 31.3003C0.4534 30.2021 0.151133 29.0445 0.151133 27.8275C0.151133 26.1059 0.621325 24.5773 1.56171 23.2416C2.50209 21.8762 3.76154 20.8077 5.34004 20.0359C6.91854 19.2345 8.66497 18.8338 10.5793 18.8338H25.4408L27.1537 22.1724L25.4408 25.0671H11.8891C11.251 25.0671 10.6633 25.2006 10.1259 25.4678C9.58856 25.7349 9.15196 26.0911 8.8161 26.5363C8.51384 26.9815 8.36271 27.501 8.36271 28.0946C8.36271 28.6586 8.51384 29.178 8.8161 29.6529C9.15196 30.0982 9.58856 30.4544 10.1259 30.7215C10.6633 30.959 11.251 31.0777 11.8891 31.0777H23.7279V37.3109H12.141C11.4357 37.3109 10.7976 37.4593 10.2267 37.7561C9.65573 38.053 9.20233 38.4388 8.86648 38.9137C8.53063 39.3886 8.36271 39.9378 8.36271 40.5611C8.36271 41.1547 8.53063 41.7039 8.86648 42.2084C9.20233 42.6834 9.65573 43.0544 10.2267 43.3215C10.7976 43.5887 11.4357 43.7222 12.141 43.7222H25.4408V50H10.6801Z" fill="#0015D1"/>
<path d="M29.3199 31.1661C31.3014 31.1661 33.0982 30.7654 34.7103 29.964C36.3224 29.1329 37.6155 28.0347 38.5894 26.6693C39.5298 25.2742 40 23.7011 40 21.9498C40 20.6438 39.6809 19.4268 39.0428 18.2989C38.3711 17.1413 37.4811 16.147 36.3728 15.3159C37.4475 14.5145 38.304 13.5646 38.9421 12.4664C39.5466 11.3682 39.8489 10.2106 39.8489 8.99359C39.8489 7.27203 39.3787 5.7434 38.4383 4.40771C37.4979 3.04233 36.2385 1.97377 34.66 1.20204C33.0815 0.400622 31.335 -8.65134e-05 29.4207 -8.65134e-05H14.5592V6.23316H28.1109C28.749 6.23316 29.3367 6.36672 29.8741 6.63386C30.4114 6.901 30.848 7.25719 31.1839 7.70242C31.4862 8.14765 31.6373 8.66709 31.6373 9.26073C31.6373 9.82469 31.4862 10.3441 31.1839 10.819C30.848 11.2643 30.4114 11.6205 29.8741 11.8876C29.3367 12.125 28.749 12.2438 28.1109 12.2438H16.2721V18.8338H22.0655H27.859C28.5643 18.8338 29.2024 18.6254 29.7733 18.9223C30.3443 19.2191 30.7977 19.6049 31.1335 20.0799C31.4694 20.5548 31.6373 21.1039 31.6373 21.7272C31.6373 22.3209 31.4694 22.87 31.1335 23.3746C30.7977 23.8495 30.3443 24.2205 29.7733 24.4876C29.2024 24.7548 28.5643 24.8884 27.859 24.8884H14.5592L16.2721 28.0946L14.5592 31.1661H29.3199Z" fill="#0015D1"/>
</svg>
