<svg width="156" height="44" viewBox="0 0 156 44" fill="none" xmlns="http://www.w3.org/2000/svg">
<path d="M3.34212 28.7965C3.035 27.629 2.3582 23.5818 1.32839 22.6459C0.63733 22.0178 3.01344 23.4745 3.88876 23.8137C6.76138 24.9271 7.38336 21.8161 8.33083 20.2744C8.65349 19.7493 8.29312 19.9356 8.18696 20.632C8.07047 21.3962 8.01368 22.5056 8.11514 23.2756C8.32512 24.8691 8.42956 26.2191 8.19803 27.8179C7.8524 30.2046 8.35251 32.4783 9.28258 34.599C10.0931 36.4471 11.4258 37.643 13.6629 37.258C15.8422 36.883 17.456 32.5623 17.7223 30.8151C17.8632 29.8912 18.0236 28.0284 18.0236 28.0284C18.0236 28.0284 17.8025 28.9595 17.8636 29.423C17.9261 29.8976 18.2873 30.0298 18.355 30.5436C18.6438 32.735 18.7675 34.2941 21.0376 34.6681C21.9916 34.8253 23.7095 34.2723 23.8217 33.0406C23.8792 32.4097 24.3669 30.8037 24.149 30.3069C23.5277 28.8901 22.6862 27.719 21.2302 26.8533C20.7817 26.5866 19.2553 26.3498 18.9082 26.9146C18.8129 27.0697 20.3285 27.073 20.8488 27.1481C21.3727 27.2237 21.8613 27.3722 22.397 27.3016C22.9571 27.2278 23.2153 26.554 23.4968 26.5169C23.8046 26.4764 23.9914 28.9653 24.0338 29.2873C24.14 30.0937 25.3096 33.9685 26.3594 33.8916C28.8866 33.7064 28.6858 31.3788 29.4031 29.5958C29.7999 28.6094 29.6575 24.2257 32.1312 26.0941C34.2034 27.6593 31.3126 24.2043 30.1662 25.6757C29.2214 26.8883 30.5548 30.3047 31.3558 31.3705C32.7991 33.2909 33.9671 33.6775 35.8084 31.9691C37.7292 30.187 36.2881 28.3622 36.0233 26.3527C35.6967 23.8741 37.5667 29.9396 37.7104 30.0251C37.9457 30.165 38.6861 32.2973 38.4834 32.5574C38.3477 32.7315 37.8913 30.0934 37.8355 29.67C37.6194 28.03 37.93 23.9152 40.8353 25.0412C42.9761 25.8709 43.7384 28.4661 44.1373 30.5329C44.2169 30.9453 44.6712 31.2516 44.4565 30.4909C44.2922 29.9087 43.6892 29.4981 43.5801 28.913C43.401 27.9529 42.5098 26.6658 42.8786 25.6187C43.4438 24.014 45.6318 22.5495 47.0429 23.8846C47.8155 24.6156 48.3337 24.9471 48.9425 25.8356C49.5847 26.773 49.4368 27.8127 50.0131 28.7426C50.4434 29.4369 49.8462 31.0869 51.1938 30.6003C52.0429 30.2936 53.0903 28.0349 52.9735 27.1483C52.8103 25.9096 52.3065 24.6955 52.1555 23.5495C51.9843 22.2508 52.8014 24.2879 52.988 24.7945C53.4685 26.0992 54.5735 30.0709 56.4339 29.9286C58.6508 29.759 58.5005 27.8875 58.8675 26.2211C59.2957 24.2771 57.4209 22.0825 55.6654 21.4877C54.2746 21.0165 53.7594 21.1305 52.6242 21.8885C52.0492 22.2724 51.0696 23.6587 52.2213 24.0489" stroke="#04478F" stroke-width="2" stroke-linecap="round"/>
<path d="M65.8545 18.4006C66.2743 20.0563 67.2917 21.4966 67.5131 23.1768C67.6263 24.036 68.0601 24.7251 68.1667 25.5341C68.201 25.7944 68.438 27.6544 67.9926 26.671C67.1651 24.8442 68.2747 23.1897 69.2212 21.6761C69.632 21.0192 70.3358 19.8453 71.1639 19.6414C72.2864 19.365 71.7708 19.2201 72.7233 19.7593C72.8862 19.8515 73.4652 21.4843 73.5013 21.7589C73.6344 22.7687 73.6673 23.5606 74.2695 24.4065C75.1968 25.709 77.3266 26.241 77.2202 23.9458C77.1432 22.2877 78.5273 20.848 78.2872 19.0261C77.9809 16.7022 77.3242 21.1682 78.0554 21.8954C79.0569 22.8915 78.901 24.4333 80.3052 25.2282C82.024 26.2012 82.9261 23.8455 83.405 22.7176C84.6775 19.7205 83.2629 14.7501 79.3186 17.5966C78.4392 18.2313 83.2082 18.3777 83.8511 18.2929C84.5349 18.2028 85.2298 17.3703 85.4633 16.7869C85.8468 15.8286 85.7622 15.8738 85.8964 16.8915C86.1058 18.4809 86.3152 20.0703 86.5247 21.6597C86.5517 21.865 86.8433 23.911 86.7453 23.9124C85.9497 23.9233 86.4598 21.9104 86.5036 21.6445C86.6519 20.7444 86.0584 20.2008 86.7373 19.3679C87.3102 18.6651 87.9139 17.8643 88.708 17.4014C88.9691 17.2492 90.6414 16.4648 89.858 17.0163C89.2194 17.4659 88.4575 17.5593 87.7616 18.0292C87.0456 18.5127 87.6076 19.7383 88.4861 19.6226C89.8178 19.4471 89.7767 20.2119 90.6158 20.887C91.0852 21.2647 91.0458 22.1306 91.6027 22.4459C92.2246 22.7979 92.7749 23.1094 93.3533 23.4369C94.492 24.0815 94.7994 19.3691 94.7245 18.8005C94.6524 18.2534 94.1321 16.3018 94.5989 17.7031C94.8904 18.578 95.7785 19.4032 95.9455 20.2566C96.3423 22.2829 98.2138 23.177 99.6113 21.4624C100.284 20.637 100.835 17.4775 99.8447 16.5807C99.2238 16.0182 99.6733 17.8243 99.8575 18.1241C100.601 19.3342 100.391 20.8821 101.187 22.1352C102.29 23.8732 102.968 26.2093 101.966 28.195C101.451 29.216 100.638 29.8057 99.679 30.3649C99.0886 30.709 97.7549 30.1611 97.5372 29.5871C96.8437 27.7587 98.4981 25.9887 99.4379 24.4857C101.39 21.3645 105.666 18.5236 105.122 14.3941C104.866 12.4505 106.541 18.062 107.239 19.9003C107.339 20.1655 108.111 21.9995 107.895 21.8441C107.463 21.5327 107.524 19.6098 107.452 19.0637C107.297 17.8817 107.897 14.8789 109.268 14.6202C110.778 14.3354 110.622 13.9316 111.9 15.064C112.644 15.723 112.965 17.0315 113.143 17.9904C113.321 18.9469 114.057 19.686 114.931 19.839C115.872 20.004 115.911 18.2019 116.103 17.6004C116.364 16.7854 116.311 15.9992 116.201 15.162C116.102 14.4085 115.58 13.0661 116.359 14.3327C118.029 17.0501 118.811 21.3924 122.542 17.7221C123.672 16.6108 122.495 14.1775 121.621 13.3339C120.795 12.5371 115.573 11.0688 116.264 12.8899C116.754 14.1812 119.729 17.2365 120.723 15.0512C120.86 14.7492 121.175 14.2989 121.367 14.0141C121.496 13.8235 121.361 13.0626 121.581 13.0336C121.683 13.0203 122.735 15.4274 122.796 15.7481C123.031 16.9658 124.457 19.0687 126.461 18.1039C127.412 17.6464 126.799 17.5758 127.359 17.249C127.772 17.0086 127.521 16.1303 127.772 15.7573C128.042 15.3569 127.975 13.6071 127.94 13.1299C127.891 12.441 127.701 11.5299 128.198 12.6288C128.529 13.3576 129.095 14.4373 129.245 15.2218C129.404 16.0459 130.126 16.6996 130.234 17.517C130.29 17.9394 130.665 18.1825 130.718 18.5851M130.718 18.5851C130.781 19.066 130.745 18.7949 130.718 18.5851ZM130.718 18.5851C130.59 17.6176 129.906 16.3141 129.641 15.4751C129.334 14.5038 129.16 13.6771 130.173 14.4527C131.024 15.1041 130.842 14.9426 131.801 15.1905C132.312 15.3227 133.232 14.3799 133.208 14.0528C133.148 13.2237 132.68 12.6476 132.578 11.8721C132.572 11.8271 133.2 13.3446 133.524 13.8494C134.355 15.1415 134.932 16.1915 136.161 17.0774C137.979 18.3891 139.195 16.7608 139.487 14.9861C139.764 13.3066 138.959 12.887 138.032 11.818C137.538 10.5155 135.061 9.59379 133.946 10.3981C132.852 11.1876 135.252 13.9451 136.795 11.478C137.313 10.649 139.838 8.33723 140.59 9.03754C141.722 10.0919 141.558 12.3333 141.745 13.7543C141.842 14.4898 142.179 15.5219 142.057 16.2644C141.984 16.7056 141.52 14.6445 141.469 14.2579C141.246 12.566 141.679 10.7402 142.821 9.48018C144.113 8.05436 146.714 10.2067 146.94 11.5245C147.098 12.4409 147.184 13.3751 147.306 14.2971C147.494 15.7264 147.3 14.4287 147.505 13.7858C147.954 12.3839 147.015 10.746 147.963 9.44941C148.775 8.33829 150.759 7.59615 151.682 9.03126C152.617 10.4851 151.549 12.6551 151.752 14.1963C151.997 16.0553 155.045 15.752 154.787 13.7964" stroke="#04478F" stroke-width="2" stroke-linecap="round"/>
</svg>
